<svg width="140" height="47" viewBox="0 0 140 47" fill="none" xmlns="http://www.w3.org/2000/svg">
<path d="M41.1626 29.2757C38.4088 29.2757 35.9224 28.6474 33.7033 27.3908C31.511 26.1342 29.7865 24.3964 28.5299 22.1773C27.3001 19.9315 26.6852 17.4184 26.6852 14.6378C26.6852 11.8573 27.3001 9.35752 28.5299 7.13845C29.7865 4.89265 31.511 3.14145 33.7033 1.88487C35.9224 0.62829 38.4088 0 41.1626 0C43.9164 0 46.3895 0.62829 48.5818 1.88487C50.8009 3.14145 52.5253 4.89265 53.7552 7.13845C55.0117 9.35752 55.64 11.8573 55.64 14.6378C55.64 17.4184 55.0117 19.9315 53.7552 22.1773C52.5253 24.3964 50.8009 26.1342 48.5818 27.3908C46.3895 28.6474 43.9164 29.2757 41.1626 29.2757ZM41.1626 27.4309C43.2213 27.4309 45.066 26.8828 46.6969 25.7867C48.3545 24.6905 49.6512 23.1666 50.587 21.2148C51.5227 19.2631 51.9906 17.0708 51.9906 14.6378C51.9906 12.2049 51.5227 10.0126 50.587 8.06084C49.6512 6.10913 48.3545 4.58519 46.6969 3.48902C45.066 2.39285 43.2213 1.84477 41.1626 1.84477C39.104 1.84477 37.2458 2.39285 35.5882 3.48902C33.9573 4.58519 32.674 6.10913 31.7382 8.06084C30.8025 10.0126 30.3346 12.2049 30.3346 14.6378C30.3346 17.0708 30.8025 19.2631 31.7382 21.2148C32.674 23.1666 33.9573 24.6905 35.5882 25.7867C37.2458 26.8828 39.104 27.4309 41.1626 27.4309Z" fill="white"/>
<path d="M62.8311 28.2731C62.9648 26.5085 63.0316 24.3697 63.0316 21.8565V2.12549C62.6841 2.12549 62.1093 2.19233 61.3072 2.32601C60.5051 2.45969 59.7966 2.59337 59.1817 2.72705L59.0213 2.48643L59.9437 0.601554H69.6487C72.055 0.601554 74.127 0.935752 75.8648 1.60415C77.6026 2.24581 78.9261 3.18156 79.8351 4.4114C80.7441 5.64125 81.1986 7.09835 81.1986 8.7827C81.1986 10.4671 80.7441 11.9375 79.8351 13.1941C78.9261 14.424 77.6026 15.3731 75.8648 16.0415C74.127 16.6831 72.055 17.004 69.6487 17.004H66.4806V28.6741H62.8311V28.2731ZM69.7691 15.3196C72.3357 15.3196 74.3141 14.7448 75.7044 13.5951C77.1214 12.4455 77.8299 10.8681 77.8299 8.86291C77.8299 6.85773 77.1214 5.28032 75.7044 4.13068C74.3141 2.9543 72.3357 2.36612 69.7691 2.36612H66.4806V15.3196H69.7691Z" fill="white"/>
<path d="M81.845 34.6496L83.2085 25.9471L83.409 25.8669C83.8635 26.0808 84.2244 26.2278 84.4918 26.308C84.7324 26.3615 84.9864 26.4283 85.2538 26.5085C85.5479 26.562 85.8553 26.6155 86.1762 26.6689C87.2188 23.6211 88.0878 20.1989 88.7829 16.4024C89.478 12.5792 89.8256 9.37089 89.8256 6.77752C89.8256 6.42996 89.8122 6.06902 89.7855 5.69472C89.7587 5.29369 89.7186 4.87928 89.6652 4.45151L89.3844 2.12549C88.9567 2.12549 87.9942 2.28591 86.497 2.60674C86.4168 2.63347 86.3232 2.66021 86.2163 2.68695C86.136 2.68695 86.0558 2.70031 85.9756 2.72705L85.8152 2.48643L86.6975 0.601554H106.749V1.00259C106.749 1.56404 106.736 2.11213 106.709 2.64684C106.709 3.18156 106.696 3.71627 106.669 4.25099C106.642 4.7857 106.616 5.32042 106.589 5.85514C106.589 6.36312 106.589 6.88446 106.589 7.41918V21.2549C106.589 22.1907 106.589 23.1398 106.589 24.1023C106.616 25.0381 106.642 25.9604 106.669 26.8695H108.835L108.875 25.5861V25.546L109.918 25.5059L111.081 34.6496L109.356 34.8902L108.915 32.7647C108.781 32.0161 108.474 31.321 107.993 30.6793C107.511 30.0644 106.923 29.5698 106.228 29.1955C105.533 28.8479 104.824 28.6741 104.102 28.6741H89.4245C88.4621 28.6741 87.6199 28.8345 86.898 29.1554C86.1762 29.4762 85.5746 29.9307 85.0934 30.5189C84.6388 31.1338 84.3046 31.8423 84.0908 32.6444L83.4491 34.9704L81.845 34.6496ZM103.1 26.8294V2.44632H92.673L92.5526 3.64943C92.0714 8.27472 91.4832 12.4188 90.7881 16.0816C90.0929 19.7176 89.1973 23.2601 88.1011 26.709C88.5824 26.7625 89.0235 26.8026 89.4245 26.8294C89.8523 26.8294 90.3336 26.8294 90.8683 26.8294H103.1Z" fill="white"/>
<path d="M112.897 28.233C113.165 27.725 113.446 27.1769 113.74 26.5887C114.034 26.0005 114.314 25.4124 114.582 24.8242C115.223 23.5676 115.852 22.2442 116.467 20.8539C117.108 19.4636 117.696 18.1269 118.231 16.8435L123.846 3.48902C123.364 3.11472 122.843 2.82063 122.282 2.60674C121.747 2.36612 121.132 2.21907 120.437 2.1656C120.33 2.1656 120.223 2.1656 120.116 2.1656C120.036 2.13886 119.942 2.12549 119.835 2.12549L120.397 0.561452C121.333 0.588187 122.308 0.601554 123.324 0.601554C124.367 0.601554 125.343 0.601554 126.252 0.601554H127.656C128.672 3.22166 129.661 5.61451 130.623 7.78011L136.759 21.5758C136.946 22.0035 137.28 22.7522 137.762 23.8216C138.109 24.5434 138.457 25.2787 138.804 26.0273C139.179 26.7491 139.553 27.4978 139.927 28.2731V28.6741H132.348L131.425 26.7492L131.546 26.5085L132.187 26.6689C132.749 26.8026 133.337 26.9229 133.952 27.0299C134.594 27.1101 135.075 27.1502 135.396 27.1502L132.187 19.731H119.033C118.873 20.1053 118.712 20.4796 118.552 20.8539C118.418 21.2015 118.285 21.549 118.151 21.8966C117.215 24.2494 116.587 26.0005 116.266 27.1502C116.56 27.1502 117.015 27.1101 117.63 27.0299C118.245 26.9229 118.846 26.8026 119.434 26.6689C119.541 26.6422 119.648 26.6155 119.755 26.5887C119.889 26.562 120.009 26.5353 120.116 26.5085L120.276 26.7492L119.354 28.6741H112.897V28.233ZM131.465 17.9664L126.854 7.45928C126.854 7.43255 126.84 7.40581 126.813 7.37908C126.813 7.3256 126.8 7.2855 126.773 7.25876C126.506 6.59037 126.252 6.02892 126.011 5.57441C125.771 5.09317 125.517 4.66539 125.249 4.29109L119.755 17.9664H131.465Z" fill="white"/>
<path d="M3.9569 46.8245C3.48257 46.8245 3.04073 46.7465 2.63137 46.5906C2.22202 46.4281 1.86139 46.2007 1.5495 45.9083C1.24411 45.6094 1.00695 45.2553 0.838005 44.8459C0.669065 44.4366 0.584595 43.985 0.584595 43.4912C0.584595 42.9584 0.68206 42.4808 0.876991 42.0584C1.07192 41.6296 1.33833 41.2657 1.67621 40.9668C2.01409 40.6679 2.40395 40.4405 2.8458 40.2845C3.28764 40.1286 3.75547 40.0506 4.2493 40.0506C4.48971 40.0506 4.73338 40.0669 4.98029 40.0994C5.2337 40.1319 5.46762 40.1773 5.68204 40.2358C5.90296 40.2878 6.0849 40.3463 6.22785 40.4113V41.9512H6.00368C5.97769 41.5678 5.87047 41.2689 5.68204 41.0545C5.49361 40.8336 5.25969 40.6777 4.98029 40.5867C4.70739 40.4892 4.42149 40.4405 4.12259 40.4405C3.66126 40.4405 3.23241 40.5445 2.83605 40.7524C2.43969 40.9603 2.1213 41.2787 1.88089 41.7075C1.64697 42.1299 1.53001 42.6725 1.53001 43.3352C1.53001 43.9655 1.64047 44.5145 1.86139 44.9824C2.08231 45.4437 2.37471 45.8011 2.73858 46.0545C3.10895 46.3079 3.51831 46.4346 3.96665 46.4346C4.376 46.4346 4.73663 46.3404 5.04852 46.152C5.3669 45.957 5.62681 45.7134 5.82824 45.421C6.02967 45.1286 6.16287 44.8329 6.22785 44.534H6.45202L6.39354 45.6744C6.14663 45.9798 5.82824 46.2494 5.43838 46.4834C5.04852 46.7108 4.55469 46.8245 3.9569 46.8245Z" fill="#E0E0E0"/>
<path d="M7.26197 40.1968H12.5154V41.7173H12.2912C12.2782 41.4899 12.2425 41.2884 12.184 41.113C12.1255 40.9376 12.015 40.8011 11.8526 40.7036C11.6902 40.5997 11.4432 40.5477 11.1119 40.5477H10.3029V45.7036C10.3029 45.9246 10.3256 46.087 10.3711 46.191C10.4231 46.2949 10.5141 46.3631 10.644 46.3956C10.7805 46.4281 10.9754 46.4476 11.2288 46.4541V46.6783H8.79218V46.4541C8.96762 46.4476 9.10407 46.4281 9.20154 46.3956C9.3055 46.3631 9.37697 46.2949 9.41596 46.191C9.45495 46.087 9.47444 45.9246 9.47444 45.7036V40.5477H8.65573C8.33084 40.5477 8.08718 40.5997 7.92474 40.7036C7.7623 40.8011 7.65183 40.9376 7.59336 41.113C7.53488 41.2884 7.49914 41.4899 7.48614 41.7173H7.26197V40.1968Z" fill="#E0E0E0"/>
<path d="M13.5592 46.6783V46.4541C13.7346 46.4476 13.871 46.4281 13.9685 46.3956C14.0725 46.3631 14.144 46.2949 14.1829 46.191C14.2219 46.087 14.2414 45.9246 14.2414 45.7036V41.1715C14.2414 40.9441 14.2154 40.7816 14.1634 40.6842C14.118 40.5802 14.0302 40.512 13.9003 40.4795C13.7703 40.447 13.5754 40.4275 13.3155 40.421V40.1968H14.2414C14.6833 40.1968 15.0406 40.1903 15.3135 40.1773C15.5929 40.1578 15.8171 40.1481 15.9861 40.1481C16.6618 40.1481 17.2044 40.2813 17.6137 40.5477C18.0231 40.8076 18.2278 41.1812 18.2278 41.6686C18.2278 41.9025 18.1725 42.1331 18.0621 42.3606C17.9581 42.588 17.7892 42.7927 17.5552 42.9746C17.3213 43.15 17.0159 43.2832 16.6391 43.3742C16.2622 43.4587 15.8041 43.4749 15.2648 43.4229V43.1305C15.7846 43.176 16.1907 43.137 16.4831 43.0136C16.782 42.8836 16.9932 42.7049 17.1167 42.4775C17.2401 42.2436 17.3018 41.9934 17.3018 41.727C17.3018 41.3957 17.2271 41.1422 17.0777 40.9668C16.9347 40.7849 16.743 40.6614 16.5026 40.5964C16.2687 40.5315 16.0153 40.499 15.7424 40.499C15.5215 40.499 15.3525 40.538 15.2356 40.6159C15.1251 40.6939 15.0699 40.8791 15.0699 41.1715V45.7036C15.0699 45.9246 15.0926 46.087 15.1381 46.191C15.1901 46.2949 15.2875 46.3631 15.4305 46.3956C15.5799 46.4281 15.7976 46.4476 16.0835 46.4541V46.6783H13.5592Z" fill="#E0E0E0"/>
<path d="M22.4195 40.0506C22.8614 40.0506 23.2772 40.1286 23.6671 40.2845C24.057 40.4405 24.4046 40.6679 24.71 40.9668C25.0154 41.2592 25.2525 41.6133 25.4215 42.0292C25.5969 42.445 25.6846 42.9096 25.6846 43.4229C25.6846 43.9363 25.5969 44.4008 25.4215 44.8167C25.2525 45.2325 25.0154 45.5899 24.71 45.8888C24.4111 46.1877 24.0635 46.4184 23.6671 46.5808C23.2707 46.7433 22.8516 46.8245 22.4098 46.8245C21.9744 46.8245 21.5586 46.7465 21.1622 46.5906C20.7724 46.4346 20.4247 46.2104 20.1194 45.9181C19.8205 45.6192 19.5833 45.2618 19.4079 44.8459C19.2389 44.4301 19.1544 43.9655 19.1544 43.4522C19.1544 42.9389 19.2389 42.4743 19.4079 42.0584C19.5833 41.6426 19.8205 41.2852 20.1194 40.9863C20.4247 40.6874 20.7724 40.4567 21.1622 40.2943C21.5586 40.1319 21.9777 40.0506 22.4195 40.0506ZM22.556 46.4346C22.9459 46.4346 23.3032 46.3274 23.6281 46.113C23.9595 45.8986 24.2259 45.5834 24.4273 45.1676C24.6288 44.7452 24.7295 44.2254 24.7295 43.6081C24.7295 42.9324 24.6125 42.3606 24.3786 41.8927C24.1447 41.4184 23.8425 41.0578 23.4722 40.8109C23.1018 40.5639 22.7054 40.4405 22.2831 40.4405C21.8932 40.4405 21.5326 40.5477 21.2012 40.7621C20.8698 40.9766 20.6034 41.2949 20.402 41.7173C20.2006 42.1331 20.0999 42.6497 20.0999 43.267C20.0999 43.9428 20.2168 44.5178 20.4507 44.9921C20.6847 45.46 20.99 45.8173 21.3669 46.0643C21.7438 46.3112 22.1401 46.4346 22.556 46.4346Z" fill="#E0E0E0"/>
<path d="M26.9131 46.6783V46.4541C27.0885 46.4476 27.225 46.4281 27.3224 46.3956C27.4264 46.3631 27.4979 46.2949 27.5369 46.191C27.5758 46.087 27.5953 45.9246 27.5953 45.7036V41.1715C27.5953 40.9441 27.5693 40.7816 27.5174 40.6842C27.4719 40.5802 27.3842 40.512 27.2542 40.4795C27.1243 40.447 26.9293 40.4275 26.6694 40.421V40.1968H29.1061V40.421C28.9306 40.4275 28.7942 40.447 28.6967 40.4795C28.5992 40.512 28.5278 40.5802 28.4823 40.6842C28.4433 40.7816 28.4238 40.9441 28.4238 41.1715V45.6451L32.1275 40.1968H33.4433V40.421C33.2678 40.4275 33.1314 40.447 33.0339 40.4795C32.9364 40.512 32.865 40.5802 32.8195 40.6842C32.7805 40.7816 32.761 40.9441 32.761 41.1715V45.7036C32.761 45.9246 32.7838 46.087 32.8292 46.191C32.8747 46.2949 32.9624 46.3631 33.0924 46.3956C33.2288 46.4281 33.4238 46.4476 33.6772 46.4541V46.6783H31.2503V46.4541C31.4257 46.4476 31.5622 46.4281 31.6596 46.3956C31.7636 46.3631 31.8351 46.2949 31.8741 46.191C31.9131 46.087 31.9326 45.9246 31.9326 45.7036V41.2397L28.2289 46.6783H26.9131Z" fill="#E0E0E0"/>
<path d="M34.4743 40.1968H39.7277V41.7173H39.5035C39.4905 41.4899 39.4548 41.2884 39.3963 41.113C39.3378 40.9376 39.2273 40.8011 39.0649 40.7036C38.9025 40.5997 38.6555 40.5477 38.3242 40.5477H37.5152V45.7036C37.5152 45.9246 37.5379 46.087 37.5834 46.191C37.6354 46.2949 37.7264 46.3631 37.8563 46.3956C37.9928 46.4281 38.1877 46.4476 38.4411 46.4541V46.6783H36.0045V46.4541C36.1799 46.4476 36.3164 46.4281 36.4138 46.3956C36.5178 46.3631 36.5893 46.2949 36.6283 46.191C36.6672 46.087 36.6867 45.9246 36.6867 45.7036V40.5477H35.868C35.5431 40.5477 35.2995 40.5997 35.137 40.7036C34.9746 40.8011 34.8641 40.9376 34.8057 41.113C34.7472 41.2884 34.7114 41.4899 34.6984 41.7173H34.4743V40.1968Z" fill="#E0E0E0"/>
<path d="M40.7715 46.6783V46.4541C40.9469 46.4476 41.0833 46.4281 41.1808 46.3956C41.2783 46.3631 41.3465 46.2949 41.3855 46.191C41.431 46.087 41.4537 45.9246 41.4537 45.7036V41.1715C41.4537 40.9441 41.4277 40.7816 41.3757 40.6842C41.3303 40.5802 41.2425 40.512 41.1126 40.4795C40.9826 40.447 40.7877 40.4275 40.5278 40.421V40.1968H45.1672V41.5613H44.943C44.9365 41.3534 44.904 41.1747 44.8455 41.0253C44.787 40.8693 44.6798 40.7524 44.5239 40.6744C44.3679 40.5899 44.1373 40.5477 43.8319 40.5477H42.711C42.5746 40.5477 42.4674 40.5802 42.3894 40.6452C42.3179 40.7101 42.2822 40.8856 42.2822 41.1715V43.0038C42.3342 42.9648 42.3959 42.9389 42.4674 42.9259C42.5453 42.9129 42.6363 42.9064 42.7403 42.9064H44.1145C44.4979 42.9064 44.6993 42.6919 44.7188 42.2631H44.943V43.92H44.7188C44.7123 43.6536 44.6668 43.4782 44.5824 43.3937C44.4979 43.3027 44.3419 43.2572 44.1145 43.2572H42.7598C42.5843 43.2572 42.4609 43.2865 42.3894 43.345C42.3179 43.4034 42.2822 43.5172 42.2822 43.6861V45.7036C42.2822 45.983 42.3309 46.1585 42.4284 46.2299C42.5323 46.2949 42.7305 46.3274 43.0229 46.3274H44.3777C44.6961 46.3274 44.9462 46.2754 45.1282 46.1715C45.3101 46.061 45.4433 45.9181 45.5278 45.7426C45.6122 45.5607 45.6642 45.3657 45.6837 45.1578H45.9079L45.8299 46.6783H40.7715Z" fill="#E0E0E0"/>
<path d="M47.5251 45.7036C47.4407 45.9505 47.4407 46.1357 47.5251 46.2592C47.6161 46.3761 47.8695 46.4411 48.2854 46.4541V46.6783H46.2678V46.4541C46.4758 46.4411 46.6414 46.3761 46.7649 46.2592C46.8884 46.1357 46.9923 45.9505 47.0768 45.7036L48.6557 40.9668C48.7142 40.7979 48.7727 40.6322 48.8312 40.4697C48.8961 40.3073 48.9514 40.1416 48.9969 39.9727H49.4744C49.5199 40.1416 49.5719 40.3073 49.6304 40.4697C49.6954 40.6257 49.7538 40.7914 49.8058 40.9668L51.2483 45.7036C51.3198 45.931 51.3913 46.0967 51.4627 46.2007C51.5342 46.3047 51.6219 46.3696 51.7259 46.3956C51.8299 46.4216 51.9663 46.4411 52.1353 46.4541V46.6783H49.8058V46.4541C50.0267 46.4411 50.1892 46.4184 50.2932 46.3859C50.4036 46.3534 50.4653 46.2852 50.4783 46.1812C50.4913 46.0772 50.4588 45.9181 50.3809 45.7036L49.0164 41.2007H48.9969L47.5251 45.7036Z" fill="#E0E0E0"/>
<path d="M54.3036 42.7797H55.0833C55.967 42.7797 56.6525 42.9291 57.1398 43.228C57.6336 43.5204 57.8805 43.9622 57.8805 44.5535C57.8805 44.9434 57.7863 45.3008 57.5979 45.6257C57.416 45.944 57.1365 46.2007 56.7597 46.3956C56.3893 46.5841 55.915 46.6783 55.3367 46.6783H52.7928V46.4541C52.9683 46.4476 53.1047 46.4281 53.2022 46.3956C53.3062 46.3631 53.3776 46.2949 53.4166 46.191C53.4556 46.087 53.4751 45.9246 53.4751 45.7036V41.1715C53.4751 40.9441 53.4491 40.7816 53.3971 40.6842C53.3516 40.5802 53.2639 40.512 53.134 40.4795C53.004 40.447 52.8091 40.4275 52.5492 40.421V40.1968H54.9858V40.421C54.8104 40.4275 54.6739 40.447 54.5765 40.4795C54.479 40.512 54.4075 40.5802 54.362 40.6842C54.323 40.7816 54.3036 40.9441 54.3036 41.1715V42.7797ZM55.2587 46.3274C55.6876 46.3274 56.0287 46.2462 56.2821 46.0837C56.5355 45.9148 56.7142 45.7036 56.8182 45.4502C56.9286 45.1903 56.9839 44.9207 56.9839 44.6413C56.9839 44.2514 56.8896 43.946 56.7012 43.7251C56.5193 43.5042 56.2789 43.3482 55.98 43.2572C55.6876 43.1663 55.3692 43.1208 55.0248 43.1208H54.3036V45.7036C54.3036 45.983 54.3718 46.1585 54.5082 46.2299C54.6512 46.2949 54.9013 46.3274 55.2587 46.3274Z" fill="#E0E0E0"/>
<path d="M58.8654 46.6783V46.4541C59.0408 46.4476 59.1773 46.4281 59.2747 46.3956C59.3787 46.3631 59.4502 46.2949 59.4892 46.191C59.5282 46.087 59.5477 45.9246 59.5477 45.7036V41.1715C59.5477 40.9441 59.5217 40.7816 59.4697 40.6842C59.4242 40.5802 59.3365 40.512 59.2065 40.4795C59.0766 40.447 58.8816 40.4275 58.6217 40.421V40.1968H61.0584V40.421C60.8829 40.4275 60.7465 40.447 60.649 40.4795C60.5515 40.512 60.4801 40.5802 60.4346 40.6842C60.3956 40.7816 60.3761 40.9441 60.3761 41.1715V42.8771C60.4281 42.8381 60.4898 42.8122 60.5613 42.7992C60.6393 42.7862 60.7302 42.7797 60.8342 42.7797H63.4073C63.5827 42.7797 63.7062 42.7504 63.7777 42.6919C63.8491 42.6335 63.8849 42.5165 63.8849 42.3411V41.1715C63.8849 40.9441 63.8589 40.7816 63.8069 40.6842C63.7614 40.5802 63.6737 40.512 63.5437 40.4795C63.4138 40.447 63.2188 40.4275 62.9589 40.421V40.1968H65.3956V40.421C65.2201 40.4275 65.0837 40.447 64.9862 40.4795C64.8888 40.512 64.8173 40.5802 64.7718 40.6842C64.7328 40.7816 64.7133 40.9441 64.7133 41.1715V45.7036C64.7133 45.9246 64.7361 46.087 64.7815 46.191C64.827 46.2949 64.9148 46.3631 65.0447 46.3956C65.1812 46.4281 65.3761 46.4476 65.6295 46.4541V46.6783H63.2026V46.4541C63.378 46.4476 63.5145 46.4281 63.612 46.3956C63.7159 46.3631 63.7874 46.2949 63.8264 46.191C63.8654 46.087 63.8849 45.9246 63.8849 45.7036V43.0233C63.8329 43.0688 63.7679 43.0981 63.6899 43.111C63.612 43.124 63.5242 43.1305 63.4268 43.1305H60.8537C60.6782 43.1305 60.5548 43.1598 60.4833 43.2183C60.4118 43.2767 60.3761 43.3904 60.3761 43.5594V45.7036C60.3761 45.9246 60.3988 46.087 60.4443 46.191C60.4963 46.2949 60.5873 46.3631 60.7172 46.3956C60.8472 46.4281 61.0389 46.4476 61.2923 46.4541V46.6783H58.8654Z" fill="#E0E0E0"/>
<path d="M71.3194 45.7036C71.3973 45.931 71.472 46.0967 71.5435 46.2007C71.615 46.2982 71.6995 46.3631 71.7969 46.3956C71.9009 46.4216 72.0373 46.4411 72.2063 46.4541V46.6783H69.8769V46.4541C70.0978 46.4411 70.2602 46.4184 70.3642 46.3859C70.4747 46.3534 70.5364 46.2852 70.5494 46.1812C70.5624 46.0772 70.5299 45.9181 70.4519 45.7036L69.8964 44.0272C69.8639 44.0597 69.8151 44.0825 69.7502 44.0954C69.6852 44.1019 69.617 44.1052 69.5455 44.1052H68.2687C68.1257 44.1052 68.0185 44.1214 67.9471 44.1539C67.8756 44.1864 67.8138 44.2741 67.7619 44.4171L67.3038 45.7036C67.2193 45.9505 67.2193 46.1357 67.3038 46.2592C67.3947 46.3761 67.6482 46.4411 68.064 46.4541V46.6783H66.0465V46.4541C66.2544 46.4411 66.4168 46.3761 66.5338 46.2592C66.6573 46.1357 66.7645 45.9505 66.8554 45.7036L68.5806 40.9668C68.6455 40.7979 68.7073 40.6322 68.7658 40.4697C68.8242 40.3073 68.8762 40.1416 68.9217 39.9727H69.3993C69.4448 40.1416 69.4935 40.3073 69.5455 40.4697C69.604 40.6322 69.6657 40.7979 69.7307 40.9668L71.3194 45.7036ZM69.565 43.7543C69.6494 43.7543 69.7079 43.7446 69.7404 43.7251C69.7729 43.6991 69.7729 43.6471 69.7404 43.5691L68.9412 41.2007H68.9217L67.986 43.7836C68.0185 43.7706 68.0575 43.7641 68.103 43.7641C68.1485 43.7576 68.2005 43.7543 68.2589 43.7543H69.565Z" fill="#E0E0E0"/>
<path d="M72.6816 46.7368C72.5061 46.7368 72.3307 46.7173 72.1553 46.6783V46.4541C72.3047 46.4541 72.4347 46.4379 72.5451 46.4054C72.6556 46.3729 72.7693 46.3014 72.8863 46.191C73.0032 46.0805 73.1397 45.9083 73.2956 45.6744L74.9525 43.15C74.4912 43.0591 74.1111 42.8934 73.8122 42.653C73.5198 42.406 73.3736 42.0812 73.3736 41.6783C73.3736 41.3989 73.4483 41.1455 73.5978 40.9181C73.7537 40.6842 73.9909 40.499 74.3093 40.3625C74.6276 40.2196 75.0338 40.1481 75.5276 40.1481C75.716 40.1481 75.9239 40.1578 76.1514 40.1773C76.3853 40.1903 76.6484 40.1968 76.9408 40.1968H77.9935V40.421C77.818 40.4275 77.6816 40.447 77.5841 40.4795C77.4866 40.512 77.4152 40.5802 77.3697 40.6842C77.3307 40.7816 77.3112 40.9441 77.3112 41.1715V45.7036C77.3112 45.9246 77.3339 46.087 77.3794 46.191C77.4249 46.2949 77.5126 46.3631 77.6426 46.3956C77.779 46.4281 77.974 46.4476 78.2274 46.4541V46.6783H75.8005V46.4541C75.9759 46.4476 76.1124 46.4281 76.2098 46.3956C76.3138 46.3631 76.3853 46.2949 76.4243 46.191C76.4633 46.087 76.4827 45.9246 76.4827 45.7036V41.1715C76.4827 40.8726 76.4243 40.6874 76.3073 40.6159C76.1968 40.538 76.0247 40.499 75.7907 40.499C75.5438 40.499 75.3034 40.5282 75.0695 40.5867C74.8421 40.6452 74.6569 40.7589 74.5139 40.9278C74.371 41.0903 74.2995 41.3307 74.2995 41.6491C74.2995 42.1169 74.475 42.4645 74.8258 42.6919C75.1767 42.9194 75.664 43.0071 76.2878 42.9551V43.2475C76.0994 43.2475 75.9597 43.267 75.8687 43.306C75.7842 43.3385 75.7063 43.4099 75.6348 43.5204L74.0656 45.9668C73.9162 46.2072 73.7407 46.3956 73.5393 46.5321C73.3444 46.6685 73.0585 46.7368 72.6816 46.7368Z" fill="#E0E0E0"/>
<path d="M87.6533 46.7368C87.2764 46.7368 86.9873 46.6653 86.7858 46.5223C86.5844 46.3729 86.396 46.1877 86.2205 45.9668L84.203 43.4327C84.1185 43.3287 84.0536 43.2572 84.0081 43.2183C83.9626 43.1793 83.9139 43.1598 83.8619 43.1598C83.8099 43.1598 83.7644 43.1793 83.7254 43.2183C83.6864 43.2507 83.6669 43.3255 83.6669 43.4424V45.7036C83.6669 45.9246 83.6897 46.087 83.7352 46.191C83.7871 46.2949 83.8781 46.3631 84.0081 46.3956C84.138 46.4281 84.3297 46.4476 84.5831 46.4541V46.6783H82.1562V46.4541C82.3317 46.4476 82.4681 46.4281 82.5656 46.3956C82.6695 46.3631 82.741 46.2949 82.78 46.191C82.819 46.087 82.8385 45.9246 82.8385 45.7036V41.1715C82.8385 40.9441 82.8125 40.7816 82.7605 40.6842C82.715 40.5802 82.6273 40.512 82.4974 40.4795C82.3674 40.447 82.1725 40.4275 81.9126 40.421V40.1968H84.3492V40.421C84.1738 40.4275 84.0373 40.447 83.9398 40.4795C83.8424 40.512 83.7709 40.5802 83.7254 40.6842C83.6864 40.7816 83.6669 40.9441 83.6669 41.1715V42.7992H83.6864L85.7722 41.1033C85.9281 40.9733 86.0289 40.8758 86.0743 40.8109C86.1198 40.7459 86.1426 40.6874 86.1426 40.6354C86.1426 40.5704 86.1068 40.5217 86.0354 40.4892C85.9639 40.4502 85.8274 40.4275 85.626 40.421V40.1968H87.6728V40.421C87.4778 40.434 87.3024 40.4827 87.1465 40.5672C86.9905 40.6517 86.8118 40.7751 86.6104 40.9376L84.7586 42.4483C84.6546 42.5263 84.6546 42.6335 84.7586 42.7699L87.0393 45.6744C87.2147 45.8953 87.3576 46.061 87.4681 46.1715C87.5851 46.2819 87.6955 46.3566 87.7995 46.3956C87.9099 46.4346 88.0366 46.4541 88.1796 46.4541V46.6783C88.0042 46.7173 87.8287 46.7368 87.6533 46.7368Z" fill="#E0E0E0"/>
<path d="M91.7781 40.0506C92.2199 40.0506 92.6357 40.1286 93.0256 40.2845C93.4155 40.4405 93.7631 40.6679 94.0685 40.9668C94.3739 41.2592 94.6111 41.6133 94.78 42.0292C94.9554 42.445 95.0432 42.9096 95.0432 43.4229C95.0432 43.9363 94.9554 44.4008 94.78 44.8167C94.6111 45.2325 94.3739 45.5899 94.0685 45.8888C93.7696 46.1877 93.422 46.4184 93.0256 46.5808C92.6292 46.7433 92.2101 46.8245 91.7683 46.8245C91.333 46.8245 90.9171 46.7465 90.5207 46.5906C90.1309 46.4346 89.7833 46.2104 89.4779 45.9181C89.179 45.6192 88.9418 45.2618 88.7664 44.8459C88.5974 44.4301 88.513 43.9655 88.513 43.4522C88.513 42.9389 88.5974 42.4743 88.7664 42.0584C88.9418 41.6426 89.179 41.2852 89.4779 40.9863C89.7833 40.6874 90.1309 40.4567 90.5207 40.2943C90.9171 40.1319 91.3362 40.0506 91.7781 40.0506ZM91.9145 46.4346C92.3044 46.4346 92.6617 46.3274 92.9866 46.113C93.318 45.8986 93.5844 45.5834 93.7858 45.1676C93.9873 44.7452 94.088 44.2254 94.088 43.6081C94.088 42.9324 93.971 42.3606 93.7371 41.8927C93.5032 41.4184 93.201 41.0578 92.8307 40.8109C92.4603 40.5639 92.0639 40.4405 91.6416 40.4405C91.2517 40.4405 90.8911 40.5477 90.5597 40.7621C90.2283 40.9766 89.9619 41.2949 89.7605 41.7173C89.5591 42.1331 89.4584 42.6497 89.4584 43.267C89.4584 43.9428 89.5753 44.5178 89.8092 44.9921C90.0432 45.46 90.3486 45.8173 90.7254 46.0643C91.1023 46.3112 91.4986 46.4346 91.9145 46.4346Z" fill="#E0E0E0"/>
<path d="M99.8388 46.7563C99.7868 46.6068 99.7251 46.4574 99.6536 46.3079C99.5822 46.152 99.4847 45.9375 99.3612 45.6646L97.4997 41.5224H97.4802L97.2852 45.7036C97.2787 45.944 97.334 46.126 97.4509 46.2494C97.5679 46.3729 97.8245 46.4411 98.2209 46.4541V46.6783H96.1449V46.4541C96.3983 46.4411 96.5737 46.3729 96.6712 46.2494C96.7752 46.126 96.8304 45.944 96.8369 45.7036L97.0611 41.1715C97.0741 40.9441 97.0578 40.7816 97.0123 40.6842C96.9733 40.5802 96.8921 40.512 96.7687 40.4795C96.6452 40.447 96.46 40.4275 96.2131 40.421V40.1968H97.87C97.922 40.3658 97.9772 40.525 98.0357 40.6744C98.1007 40.8239 98.1754 40.9895 98.2599 41.1715L100.229 45.499H100.248L102.061 41.1715C102.133 41.0025 102.194 40.8401 102.246 40.6842C102.305 40.5217 102.357 40.3593 102.402 40.1968H103.942V40.421C103.76 40.4275 103.617 40.447 103.513 40.4795C103.409 40.512 103.338 40.5802 103.299 40.6842C103.266 40.7816 103.253 40.9441 103.26 41.1715L103.465 45.7036C103.478 45.9246 103.507 46.087 103.552 46.191C103.598 46.2949 103.679 46.3631 103.796 46.3956C103.919 46.4216 104.088 46.4411 104.303 46.4541V46.6783H102.042V46.4541C102.197 46.4411 102.321 46.4216 102.412 46.3956C102.503 46.3631 102.565 46.2949 102.597 46.191C102.636 46.087 102.649 45.9246 102.636 45.7036L102.451 41.4541H102.431L100.648 45.6646C100.537 45.9375 100.45 46.152 100.385 46.3079C100.326 46.4574 100.277 46.6068 100.238 46.7563H99.8388Z" fill="#E0E0E0"/>
<path d="M110.869 45.7036C110.869 45.9246 110.892 46.087 110.938 46.191C110.983 46.2949 111.071 46.3631 111.201 46.3956C111.337 46.4281 111.532 46.4476 111.786 46.4541V46.6783H109.359V46.4541C109.534 46.4476 109.671 46.4281 109.768 46.3956C109.872 46.3631 109.943 46.2949 109.982 46.191C110.021 46.087 110.041 45.9246 110.041 45.7036V41.1715C110.041 40.8986 109.989 40.7264 109.885 40.6549C109.787 40.5834 109.596 40.5477 109.31 40.5477H107.312C107.149 40.5477 107.026 40.5834 106.941 40.6549C106.864 40.7264 106.825 40.8986 106.825 41.1715V45.7036C106.825 45.9246 106.847 46.087 106.893 46.191C106.945 46.2949 107.036 46.3631 107.166 46.3956C107.296 46.4281 107.487 46.4476 107.741 46.4541V46.6783H105.314V46.4541C105.489 46.4476 105.626 46.4281 105.723 46.3956C105.827 46.3631 105.899 46.2949 105.938 46.191C105.977 46.087 105.996 45.9246 105.996 45.7036V41.1715C105.996 40.9441 105.97 40.7816 105.918 40.6842C105.873 40.5802 105.785 40.512 105.655 40.4795C105.525 40.447 105.33 40.4275 105.07 40.421V40.1968H111.552V40.421C111.376 40.4275 111.24 40.447 111.142 40.4795C111.045 40.512 110.973 40.5802 110.928 40.6842C110.889 40.7816 110.869 40.9441 110.869 41.1715V45.7036Z" fill="#E0E0E0"/>
<path d="M117.482 45.7036C117.56 45.931 117.635 46.0967 117.706 46.2007C117.778 46.2982 117.862 46.3631 117.96 46.3956C118.064 46.4216 118.2 46.4411 118.369 46.4541V46.6783H116.04V46.4541C116.261 46.4411 116.423 46.4184 116.527 46.3859C116.638 46.3534 116.699 46.2852 116.712 46.1812C116.725 46.0772 116.693 45.9181 116.615 45.7036L116.059 44.0272C116.027 44.0597 115.978 44.0825 115.913 44.0954C115.848 44.1019 115.78 44.1052 115.708 44.1052H114.432C114.289 44.1052 114.181 44.1214 114.11 44.1539C114.038 44.1864 113.977 44.2741 113.925 44.4171L113.467 45.7036C113.382 45.9505 113.382 46.1357 113.467 46.2592C113.558 46.3761 113.811 46.4411 114.227 46.4541V46.6783H112.209V46.4541C112.417 46.4411 112.58 46.3761 112.697 46.2592C112.82 46.1357 112.927 45.9505 113.018 45.7036L114.743 40.9668C114.808 40.7979 114.87 40.6322 114.929 40.4697C114.987 40.3073 115.039 40.1416 115.085 39.9727H115.562C115.608 40.1416 115.656 40.3073 115.708 40.4697C115.767 40.6322 115.829 40.7979 115.894 40.9668L117.482 45.7036ZM115.728 43.7543C115.812 43.7543 115.871 43.7446 115.903 43.7251C115.936 43.6991 115.936 43.6471 115.903 43.5691L115.104 41.2007H115.085L114.149 43.7836C114.181 43.7706 114.22 43.7641 114.266 43.7641C114.311 43.7576 114.363 43.7543 114.422 43.7543H115.728Z" fill="#E0E0E0"/>
<path d="M119.02 46.6783V46.4541C119.195 46.4476 119.332 46.4281 119.429 46.3956C119.533 46.3631 119.605 46.2949 119.644 46.191C119.683 46.087 119.702 45.9246 119.702 45.7036V41.1715C119.702 40.9441 119.676 40.7816 119.624 40.6842C119.579 40.5802 119.491 40.512 119.361 40.4795C119.231 40.447 119.036 40.4275 118.776 40.421V40.1968H121.213V40.421C121.037 40.4275 120.901 40.447 120.804 40.4795C120.706 40.512 120.635 40.5802 120.589 40.6842C120.55 40.7816 120.531 40.9441 120.531 41.1715V42.8771C120.583 42.8381 120.644 42.8122 120.716 42.7992C120.794 42.7862 120.885 42.7797 120.989 42.7797H123.562C123.737 42.7797 123.861 42.7504 123.932 42.6919C124.004 42.6335 124.039 42.5165 124.039 42.3411V41.1715C124.039 40.9441 124.013 40.7816 123.961 40.6842C123.916 40.5802 123.828 40.512 123.698 40.4795C123.568 40.447 123.373 40.4275 123.113 40.421V40.1968H125.55V40.421C125.375 40.4275 125.238 40.447 125.141 40.4795C125.043 40.512 124.972 40.5802 124.926 40.6842C124.887 40.7816 124.868 40.9441 124.868 41.1715V45.7036C124.868 45.9246 124.891 46.087 124.936 46.191C124.982 46.2949 125.069 46.3631 125.199 46.3956C125.336 46.4281 125.531 46.4476 125.784 46.4541V46.6783H123.357V46.4541C123.533 46.4476 123.669 46.4281 123.766 46.3956C123.87 46.3631 123.942 46.2949 123.981 46.191C124.02 46.087 124.039 45.9246 124.039 45.7036V43.0233C123.987 43.0688 123.922 43.0981 123.844 43.111C123.766 43.124 123.679 43.1305 123.581 43.1305H121.008C120.833 43.1305 120.709 43.1598 120.638 43.2183C120.566 43.2767 120.531 43.3904 120.531 43.5594V45.7036C120.531 45.9246 120.553 46.087 120.599 46.191C120.651 46.2949 120.742 46.3631 120.872 46.3956C121.002 46.4281 121.193 46.4476 121.447 46.4541V46.6783H119.02Z" fill="#E0E0E0"/>
<path d="M126.825 46.6783V46.4541C127 46.4476 127.137 46.4281 127.234 46.3956C127.338 46.3631 127.41 46.2949 127.449 46.191C127.488 46.087 127.507 45.9246 127.507 45.7036V41.1715C127.507 40.9441 127.481 40.7816 127.429 40.6842C127.384 40.5802 127.296 40.512 127.166 40.4795C127.036 40.447 126.841 40.4275 126.581 40.421V40.1968H129.018V40.421C128.842 40.4275 128.706 40.447 128.608 40.4795C128.511 40.512 128.439 40.5802 128.394 40.6842C128.355 40.7816 128.335 40.9441 128.335 41.1715V45.6451L132.039 40.1968H133.355V40.421C133.18 40.4275 133.043 40.447 132.946 40.4795C132.848 40.512 132.777 40.5802 132.731 40.6842C132.692 40.7816 132.673 40.9441 132.673 41.1715V45.7036C132.673 45.9246 132.695 46.087 132.741 46.191C132.786 46.2949 132.874 46.3631 133.004 46.3956C133.141 46.4281 133.335 46.4476 133.589 46.4541V46.6783H131.162V46.4541C131.337 46.4476 131.474 46.4281 131.571 46.3956C131.675 46.3631 131.747 46.2949 131.786 46.191C131.825 46.087 131.844 45.9246 131.844 45.7036V41.2397L128.141 46.6783H126.825Z" fill="#E0E0E0"/>
<path d="M134.454 46.7368C134.279 46.7368 134.103 46.7173 133.928 46.6783V46.4541C134.077 46.4541 134.207 46.4379 134.318 46.4054C134.428 46.3729 134.542 46.3014 134.659 46.191C134.776 46.0805 134.912 45.9083 135.068 45.6744L136.725 43.15C136.264 43.0591 135.884 42.8934 135.585 42.653C135.292 42.406 135.146 42.0812 135.146 41.6783C135.146 41.3989 135.221 41.1455 135.37 40.9181C135.526 40.6842 135.763 40.499 136.082 40.3625C136.4 40.2196 136.806 40.1481 137.3 40.1481C137.489 40.1481 137.697 40.1578 137.924 40.1773C138.158 40.1903 138.421 40.1968 138.713 40.1968H139.766V40.421C139.591 40.4275 139.454 40.447 139.357 40.4795C139.259 40.512 139.188 40.5802 139.142 40.6842C139.103 40.7816 139.084 40.9441 139.084 41.1715V45.7036C139.084 45.9246 139.107 46.087 139.152 46.191C139.197 46.2949 139.285 46.3631 139.415 46.3956C139.552 46.4281 139.747 46.4476 140 46.4541V46.6783H137.573V46.4541C137.749 46.4476 137.885 46.4281 137.982 46.3956C138.086 46.3631 138.158 46.2949 138.197 46.191C138.236 46.087 138.255 45.9246 138.255 45.7036V41.1715C138.255 40.8726 138.197 40.6874 138.08 40.6159C137.969 40.538 137.797 40.499 137.563 40.499C137.316 40.499 137.076 40.5282 136.842 40.5867C136.615 40.6452 136.429 40.7589 136.287 40.9278C136.144 41.0903 136.072 41.3307 136.072 41.6491C136.072 42.1169 136.248 42.4645 136.598 42.6919C136.949 42.9194 137.437 43.0071 138.06 42.9551V43.2475C137.872 43.2475 137.732 43.267 137.641 43.306C137.557 43.3385 137.479 43.4099 137.407 43.5204L135.838 45.9668C135.689 46.2072 135.513 46.3956 135.312 46.5321C135.117 46.6685 134.831 46.7368 134.454 46.7368Z" fill="#E0E0E0"/>
<path fill-rule="evenodd" clip-rule="evenodd" d="M10.3161 13.9089L4.54689 4.62254C3.89501 3.4669 3.30831 2.65521 2.78681 2.18745C2.2653 1.69218 1.6949 1.362 1.07561 1.19691C0.717073 1.11436 0.440022 1.03182 0.244457 0.94927C0.0814855 0.866725 0 0.715392 0 0.495272C0 0.16509 0.391131 0 1.17339 0H5.32915L12.1739 11.5976L19.5565 0H21.4144C21.8707 0 22.1478 0.0963027 22.2456 0.288908C22.3759 0.481514 22.3596 0.715393 22.1967 0.990543L13.8362 13.4549L23.4678 28.767H19.801L11.9295 16.0138L4.10687 28.767H0.831152L10.3161 13.9089ZM10.1474 21.9254H11.8031V24.4089H10.1474V21.9254ZM11.8031 24.7396H10.1474V27.2231H11.8031V24.7396ZM12.1341 21.9254H13.7898V24.4089H12.1341V21.9254ZM13.7898 24.7396H12.1341V27.2231H13.7898V24.7396Z" fill="white"/>
</svg>
