<svg width="20" height="21" viewBox="0 0 20 21" fill="none" xmlns="http://www.w3.org/2000/svg">
<path fill-rule="evenodd" clip-rule="evenodd" d="M4.43992 0.741532C2.54837 0.951753 0.902932 2.26647 0.263534 4.07847C-0.0168921 4.87325 0.00020185 4.44127 0.00020185 10.7273C0.00020185 16.0994 0.00380057 16.3953 0.0732323 16.7113C0.515366 18.7245 1.99616 20.2051 4.00964 20.6471C4.3257 20.7166 4.62162 20.7202 9.99446 20.7202C15.3673 20.7202 15.6632 20.7166 15.9793 20.6471C17.9939 20.2048 19.4733 18.7256 19.9157 16.7113C19.9851 16.3953 19.9887 16.0994 19.9887 10.7273C19.9887 5.35525 19.9851 5.05938 19.9157 4.74336C19.4741 2.73275 18.0577 1.30895 15.9988 0.806026C15.7477 0.744661 15.2639 0.738599 10.1509 0.732732C7.08517 0.729212 4.51522 0.733163 4.43992 0.741532ZM15.6468 1.71121C16.067 1.77957 16.4414 1.90254 16.8398 2.10298C17.2406 2.3046 17.4309 2.44086 17.7877 2.78167C18.4602 3.42407 18.8533 4.16057 19.0098 5.07115C19.0995 5.59328 19.0995 15.8614 19.0098 16.3835C18.9341 16.8241 18.8257 17.1568 18.629 17.5522C18.4327 17.9468 18.2643 18.1812 17.9171 18.5432C17.291 19.1958 16.5518 19.5867 15.6514 19.7414C15.141 19.8291 4.87983 19.8309 4.34213 19.7434C3.45309 19.5988 2.69005 19.1917 2.04768 18.5195C1.70681 18.1627 1.57053 17.9724 1.36889 17.5717C1.16842 17.1734 1.04543 16.799 0.977057 16.3789C0.891549 15.8537 0.891549 5.60094 0.977057 5.0758C1.11831 4.20817 1.50896 3.45509 2.1378 2.83807C2.61377 2.37113 3.13824 2.04932 3.74838 1.8499C4.32817 1.6604 4.28173 1.66185 9.95534 1.65778C14.4717 1.6545 15.349 1.66275 15.6468 1.71121ZM4.83109 7.91134V10.258H5.30005H5.76898L5.77923 8.71304L5.78944 7.16804L9.68145 11.0597L13.5735 14.9513H12.0187H10.4639V15.4206V15.89H12.8108H15.1578V13.5433V11.1967H14.6884H14.219V12.7512V14.3058L10.3269 10.4144L6.43467 6.52291L7.97988 6.5127L9.52506 6.50245V6.03359V5.56469H7.17807H4.83109V7.91134Z" fill="black"/>
</svg>
