<svg width="15" height="15" viewBox="0 0 15 15" fill="none" xmlns="http://www.w3.org/2000/svg">
<path fill-rule="evenodd" clip-rule="evenodd" d="M2.66492 0.0330661C2.42414 0.093774 2.1807 0.230147 1.9317 0.443856C1.65559 0.680822 0.661797 1.68699 0.500035 1.89337C-0.155606 2.72976 -0.166614 4.03034 0.467718 5.70729C1.24268 7.75596 2.69453 9.83275 4.53054 11.519C7.06255 13.8444 10.4508 15.3514 12.1977 14.9292C12.4564 14.8666 12.8866 14.6668 13.0843 14.5173C13.2826 14.3673 14.6142 13.006 14.7379 12.8268C14.9664 12.4957 15.0546 12.0524 14.9663 11.6784C14.8676 11.2604 14.835 11.2204 13.5531 9.94308C12.2606 8.65517 12.2209 8.62344 11.7929 8.53346C11.4559 8.4626 11.1116 8.52507 10.7784 8.71746C10.7008 8.76233 10.3363 9.09502 9.96849 9.4568L9.29975 10.1146L9.08551 10.0036C8.55929 9.73099 8.17107 9.46918 7.59095 8.9956C6.99523 8.50929 6.16497 7.65431 5.70661 7.05518C5.3755 6.62236 4.88506 5.82257 4.88365 5.71309C4.88338 5.6921 5.11263 5.45193 5.3931 5.17942C5.98087 4.6083 6.21383 4.34113 6.34512 4.08765C6.51101 3.76736 6.54277 3.36405 6.42851 3.02875C6.31245 2.68808 6.20285 2.55904 5.0772 1.43771C3.96438 0.329186 3.79364 0.183457 3.47771 0.0724236C3.25534 -0.00570477 2.88917 -0.0234479 2.66492 0.0330661ZM3.34667 0.855174C3.43032 0.902831 3.89954 1.34749 4.53246 1.97891C5.67848 3.12228 5.72109 3.17609 5.71959 3.4784C5.71824 3.74657 5.64907 3.83919 4.87956 4.6034C4.49202 4.98824 4.1541 5.34327 4.12864 5.39234C4.0955 5.45619 4.08558 5.53874 4.0937 5.68239C4.10386 5.86123 4.1272 5.92689 4.30703 6.28237C4.713 7.08474 5.24823 7.79171 6.13359 8.69499C7.01492 9.59414 7.89172 10.2633 8.79419 10.7253C9.11668 10.8905 9.17758 10.9118 9.32398 10.9109C9.42469 10.9103 9.52962 10.889 9.59237 10.8566C9.64903 10.8272 10.0133 10.4889 10.4019 10.1047C10.9035 9.60875 11.1468 9.38879 11.2407 9.34633C11.4172 9.26656 11.6474 9.26679 11.8084 9.34691C11.9866 9.43563 14.0651 11.5046 14.1582 11.686C14.2087 11.7845 14.228 11.8706 14.228 11.998C14.228 12.2988 14.167 12.3817 13.3306 13.218C12.5023 14.0462 12.4254 14.1023 11.9843 14.2001C11.5595 14.2942 10.8441 14.2193 10.119 14.0046C9.01652 13.6783 7.53132 12.8972 6.31063 12.0017C3.95772 10.2757 1.93867 7.64132 1.1004 5.20353C0.702002 4.04492 0.657765 3.2146 0.961598 2.59857C1.05834 2.4024 1.1444 2.30357 1.75722 1.68467C2.13514 1.30298 2.49572 0.955239 2.5585 0.911893C2.82171 0.730122 3.0929 0.710619 3.34667 0.855174Z" fill="#7D7D7D"/>
</svg>
