<svg width="15" height="15" viewBox="0 0 15 15" fill="none" xmlns="http://www.w3.org/2000/svg">
<path fill-rule="evenodd" clip-rule="evenodd" d="M7.13422 0.00720042C7.08593 0.0141191 6.94299 0.0338196 6.81651 0.0509696C6.09554 0.148769 5.23332 0.555268 4.6469 1.07384C3.90623 1.72886 3.38366 2.67205 3.22444 3.64127C3.16706 3.9906 3.17452 4.78384 3.23823 5.10471C3.44833 6.1627 4.04403 7.14201 4.84875 7.75232L5.04903 7.90421L4.96501 7.93619C4.61292 8.07017 4.45827 8.13765 4.15924 8.28772C2.85913 8.94016 1.80129 9.92709 1.05003 11.1886C0.434637 12.2218 0.0917675 13.3733 0.01984 14.6482L0 15H0.589641H1.17928V14.8565C1.17928 13.8632 1.59212 12.4898 2.14436 11.646C2.99737 10.3427 4.13785 9.44865 5.52878 8.9929C6.85014 8.55995 8.14986 8.55995 9.47122 8.9929C10.8622 9.44865 12.0026 10.3427 12.8556 11.646C13.4079 12.4898 13.8207 13.8632 13.8207 14.8565V15H14.4104H15L14.9802 14.6482C14.9082 13.3733 14.5654 12.2218 13.95 11.1886C13.1987 9.92709 12.1409 8.94016 10.8408 8.28772C10.5417 8.13765 10.3871 8.07017 10.035 7.93619L9.95098 7.90421L10.1512 7.75232C10.956 7.14201 11.5517 6.1627 11.7618 5.10471C11.8255 4.78384 11.8329 3.9906 11.7756 3.64127C11.6485 2.86767 11.2612 2.05089 10.7438 1.46539C10.1046 0.741895 9.20212 0.230825 8.26305 0.0604681C8.03714 0.0194839 7.29335 -0.0156076 7.13422 0.00720042ZM7.99501 1.20773C9.71646 1.48744 10.8928 3.1112 10.6154 4.8248C10.3362 6.54941 8.71545 7.72793 7.00499 7.45004C5.28354 7.17033 4.10718 5.54656 4.38456 3.83297C4.6637 2.10862 6.28481 0.929871 7.99501 1.20773Z" fill="#7D7D7D"/>
</svg>
